<?xml version="1.0" encoding="UTF-8" standalone="no"?>
<!-- Created with Inkscape (http://www.inkscape.org/) -->

<svg
   xmlns:dc="http://purl.org/dc/elements/1.1/"
   xmlns:cc="http://creativecommons.org/ns#"
   xmlns:rdf="http://www.w3.org/1999/02/22-rdf-syntax-ns#"
   xmlns:svg="http://www.w3.org/2000/svg"
   xmlns="http://www.w3.org/2000/svg"
   xmlns:sodipodi="http://sodipodi.sourceforge.net/DTD/sodipodi-0.dtd"
   xmlns:inkscape="http://www.inkscape.org/namespaces/inkscape"
   id="svg2"
   version="1.1"
   inkscape:version="0.91 r13725"
   width="72"
   height="72"
   viewBox="0 0 72 72"
   sodipodi:docname="mc-logo.svg"
   inkscape:export-filename="/home/tamar/Desktop/blubb.png"
   inkscape:export-xdpi="90"
   inkscape:export-ydpi="90">
  <metadata
     id="metadata8">
    <rdf:RDF>
      <cc:Work
         rdf:about="">
        <dc:format>image/svg+xml</dc:format>
        <dc:type
           rdf:resource="http://purl.org/dc/dcmitype/StillImage" />
        <dc:title />
      </cc:Work>
    </rdf:RDF>
  </metadata>
  <defs
     id="defs6" />
  <sodipodi:namedview
     pagecolor="#ffffff"
     bordercolor="#666666"
     borderopacity="1"
     objecttolerance="10"
     gridtolerance="10"
     guidetolerance="10"
     inkscape:pageopacity="0"
     inkscape:pageshadow="2"
     inkscape:window-width="1366"
     inkscape:window-height="744"
     id="namedview4"
     showgrid="false"
     inkscape:zoom="6.5555556"
     inkscape:cx="4.0431148"
     inkscape:cy="30.500565"
     inkscape:window-x="0"
     inkscape:window-y="24"
     inkscape:window-maximized="1"
     inkscape:current-layer="g3358" />
  <g
     id="g3358"
     transform="translate(1.2203386,1.2542372e-7)"
     inkscape:export-xdpi="90"
     inkscape:export-ydpi="90">
    <path
       style="fill:#ededed"
       d="M 28.429382,67.275552 C 22.747748,65.848679 17.627027,62.928807 13.307716,58.653069 1.0873742,46.556009 1.0873742,26.138227 13.307716,13.917886 22.574656,4.6509445 37.429638,2.0050696 48.84219,7.5887106 c 6.625535,3.2415724 13.192189,9.9821864 16.113826,16.5407044 2.888338,6.483766 2.879745,17.886754 -0.01838,24.392898 -2.910549,6.534031 -10.307678,14.13424 -16.240676,16.686548 -5.757082,2.47663 -14.916302,3.410599 -20.267575,2.066691 z"
       id="path3372"
       inkscape:connector-curvature="0" />
    <path
       style="fill:#c4c5c5"
       d="M 30.553458,67.220409 C 28.000657,66.825248 24.335502,65.753836 22.408669,64.839494 18.190047,62.837627 11.080647,56.894348 9.6039102,54.13504 8.5794809,52.220877 8.7590277,52.169183 14.109831,52.837721 c 3.065076,0.382956 7.628053,0.388089 10.13995,0.01141 l 4.567085,-0.684876 -5.589147,-5.370274 C 16.411665,40.244842 12.852832,32.923256 11.82929,23.343991 c -0.742719,-6.951056 -0.716697,-7.063278 2.268952,-9.785302 1.661158,-1.514482 2.414668,-1.959831 1.674467,-0.989665 -2.5459,3.336859 0.749359,15.34848 5.788718,21.100582 1.536668,1.754008 1.663124,1.428014 2.133488,-5.5 l 0.5,-7.364521 11.547518,-0.279984 c 11.229575,-0.272274 11.612959,-0.210324 13.924314,2.25 1.307238,1.391491 2.748355,2.529984 3.202482,2.529984 1.348771,0 0.967459,-13.445543 -0.424314,-14.961838 -0.6875,-0.7490113 0.213531,-0.3576348 2.002291,0.869725 7.757487,5.32281 12.19473,14.462569 12.225747,25.182391 0.01876,6.48464 -0.421855,8.478433 -3.024869,13.687526 -6.262946,12.533264 -19.283005,19.275492 -33.094626,17.13752 z M 46.514466,42.055085 c -0.467166,-3.289378 -6.24787,-5.968278 -11.683787,-5.414513 -4.684184,0.477184 -9.433554,3.348285 -9.959088,6.020492 -0.284448,1.446346 1.016484,1.644021 10.819551,1.644021 10.983589,0 11.138307,-0.03216 10.823324,-2.25 z m -8.019551,-8.95 c 2.994132,-2.994132 -0.405403,-7.719588 -4.075823,-5.665518 -2.892265,1.618593 -1.535104,6.865518 1.775823,6.865518 0.605,0 1.64,-0.54 2.3,-1.2 z"
       id="path3370"
       inkscape:connector-curvature="0"
       sodipodi:nodetypes="ssssscsssssscsssssssssssssssss" />
    <path
       style="fill:#9caea5"
       d="m 14.212189,55.234681 c -6.9132557,-1.727215 -5.7403765,-2.45591 3.931433,-2.442548 5.156036,0.0071 9.664817,-0.275 10.019512,-0.626942 C 28.51783,51.81325 26.396967,49.245009 23.450105,46.45799 17.348402,40.687253 14.170635,35.007433 12.561861,26.996753 11.453592,21.478277 12.040867,14.305085 13.600937,14.305085 c 0.448468,0 1.08379,2.266165 1.411827,5.035923 0.581401,4.909022 4.679294,13.88689 7.350465,16.103765 1.089106,0.903878 1.331686,-0.283303 1.331686,-6.517243 l 0,-7.622445 12.5,0 12.5,0 0.08426,7.75 0.08426,7.75 2.112177,-4.5 c 1.373378,-2.925985 2.305803,-7.419597 2.66574,-12.846927 l 0.553563,-8.346927 2.75,2.169507 c 2.308949,1.821557 2.75,2.930668 2.75,6.915426 0,6.28696 -2.279876,13.578142 -5.975159,19.108921 -1.788094,2.676263 -2.557153,4.651045 -1.897625,4.872697 0.60993,0.204983 4.205823,-1.216199 7.990874,-3.158182 6.729665,-3.452766 6.88191,-3.481544 6.88191,-1.300835 0,1.226523 -0.691599,4.259775 -1.536888,6.740559 -2.325088,6.823759 -5.917995,8.281691 -20.963112,8.506425 -6.6,0.09859 -15.15,0.423312 -19,0.721614 -3.85,0.298302 -8.792227,0.09459 -10.982726,-0.452682 z M 47.694915,42.876514 c 0,-1.854267 -2.672603,-4.496455 -5.720278,-5.655178 -6.612565,-2.514093 -17.279722,0.615144 -17.279722,5.069051 0,1.902803 0.6387,2.014698 11.5,2.014698 9.3,0 11.5,-0.273292 11.5,-1.428571 z m -9.581787,-9.178418 c 1.982106,-0.760606 2.063562,-4.748284 0.129775,-6.353185 -1.747966,-1.450683 -5.135667,-0.5567 -5.952021,1.570683 -0.323837,0.843907 -0.124576,2.401776 0.442803,3.461933 1.064186,1.98845 2.634445,2.373924 5.379443,1.320569 z"
       id="path3368"
       inkscape:connector-curvature="0" />
    <path
       style="fill:#f99909"
       d="m 13.194915,54.647013 c -4.7166558,-1.264199 -2.829036,-1.823788 5.295345,-1.569815 9.373455,0.293019 13.320853,-0.900046 9.704655,-2.933146 -1.1,-0.618442 -4.083742,-3.252943 -6.630538,-5.854447 -6.009909,-6.139007 -8.90594,-13.661045 -8.767374,-22.772033 0.09503,-6.248686 0.172246,-6.470654 1.117469,-3.212487 2.302561,7.936883 4.133477,11.994062 6.840823,15.158781 l 2.858339,3.341219 0.04064,-7.75 0.04064,-7.75 12.5,0 12.5,0 0,7.559017 c 0,4.367493 0.389932,7.318026 0.92354,6.988238 1.926395,-1.190578 4.511051,-11.28581 4.543163,-17.744831 l 0.0333,-6.697576 2.84437,2.697576 c 2.627937,2.492313 2.79832,3.098409 2.239178,7.965332 -0.810226,7.052415 -3.825106,14.70499 -7.686175,19.509575 l -3.166895,3.940777 3.384761,-0.731091 c 3.91856,-0.846389 10.599653,-4.02983 13.134761,-6.258516 2.285066,-2.008868 2.326262,-0.531989 0.186177,6.67446 -1.419909,4.781353 -1.995078,5.460776 -6.25,7.382866 -4.436924,2.004305 -12.043917,2.686517 -21.68618,1.944863 -1.65,-0.126913 -7.275,-0.03319 -12.5,0.208272 -5.225,0.241463 -10.4,0.197798 -11.5,-0.09703 z m 34.5,-11.770499 c 0,-1.854267 -2.672603,-4.496455 -5.720278,-5.655178 -6.612565,-2.514093 -17.279722,0.615144 -17.279722,5.069051 0,1.902803 0.6387,2.014698 11.5,2.014698 9.3,0 11.5,-0.273292 11.5,-1.428571 z m -9.581787,-9.178418 c 1.982106,-0.760606 2.063562,-4.748284 0.129775,-6.353185 -1.747966,-1.450683 -5.135667,-0.5567 -5.952021,1.570683 -0.323837,0.843907 -0.124576,2.401776 0.442803,3.461933 1.064186,1.98845 2.634445,2.373924 5.379443,1.320569 z"
       id="path3366"
       inkscape:connector-curvature="0" />
    <path
       style="fill:#39489e"
       d="m 13.194915,54.647013 c -4.7166558,-1.264199 -2.829036,-1.823788 5.295345,-1.569815 9.373455,0.293019 13.320853,-0.900046 9.704655,-2.933146 -1.1,-0.618442 -4.083742,-3.252943 -6.630538,-5.854447 -5.989585,-6.118246 -8.897778,-13.651989 -8.790515,-22.772033 0.08216,-6.985512 0.07981,-6.987654 3.037091,2.771981 0.747364,2.466458 2.826996,6.407852 4.621403,8.758653 2.424565,3.176353 3.262559,5.29937 3.262559,8.265532 l 0,3.991347 4.8,0 c 2.64,0 5.330907,0.530907 5.979794,1.179794 0.886838,0.886838 1.743511,0.89922 3.45,0.04986 1.248613,-0.621461 5.46231,-1.332309 9.363771,-1.579662 6.954591,-0.440922 13.604725,-2.859519 17.656435,-6.421494 2.285066,-2.008868 2.326262,-0.531989 0.186177,6.67446 -1.419909,4.781353 -1.995078,5.460776 -6.25,7.382866 -4.436921,2.004308 -12.043914,2.68652 -21.686177,1.944866 -1.65,-0.126913 -7.275,-0.03319 -12.5,0.208272 -5.225,0.241463 -10.4,0.197798 -11.5,-0.09703 z M 48.735556,41.019902 c -0.02235,-2.081851 0.616421,-4.787987 1.419497,-6.013635 2.511919,-3.833674 4.810522,-14.709852 4.141066,-19.594066 l -0.6162,-4.495665 3.101868,2.944274 c 2.90873,2.76095 3.064467,3.269881 2.50119,8.173623 -0.813921,7.085775 -3.937324,15.084042 -7.533731,19.292027 l -2.97305,3.478625 -0.04064,-3.785183 z"
       id="path3364"
       inkscape:connector-curvature="0" />
    <path
       style="fill:#399b2c"
       d="m 13.194915,54.592019 c -4.8250916,-1.160587 -2.779671,-1.762787 4.977309,-1.465387 4.61274,0.176851 9.204875,-0.107474 10.204745,-0.631834 1.169246,-0.613184 2.710025,-0.590449 4.317946,0.06371 l 2.5,1.017096 -2.5,0.765058 c -2.747047,0.84066 -16.322482,1.015646 -19.5,0.251352 z M 48.465916,41.728507 c 0.22544,-2.157882 1.252135,-5.723422 2.281543,-7.923422 2.716205,-5.804938 4.263334,-14.123144 3.506782,-18.854363 L 53.596345,10.836466 56.74,13.820776 c 2.955056,2.805269 3.107618,3.298037 2.542977,8.213657 -0.840374,7.316069 -4.035428,15.298129 -7.924279,19.796865 l -3.302674,3.820631 0.409892,-3.923422 z"
       id="path3362"
       inkscape:connector-curvature="0" />
    <path
       style="fill:#30732a"
       d="m 30.194915,53.305085 c -0.339919,-0.55 0.335081,-1 1.5,-1 1.164919,0 1.839919,0.45 1.5,1 -0.339919,0.55 -1.014919,1 -1.5,1 -0.485081,0 -1.160081,-0.45 -1.5,-1 z M 48.717151,41.459377 c -0.01223,-1.840139 0.649681,-4.540139 1.470914,-6 0.821232,-1.459861 1.95369,-3.940703 2.516573,-5.512982 0.851745,-2.379147 1.272267,-2.652168 2.50685,-1.627556 0.815885,0.677125 1.483427,1.868962 1.483427,2.648529 0,1.772458 -3.277676,8.024631 -5.943752,11.337717 l -2.011776,2.5 -0.02224,-3.345708 z"
       id="path3360"
       inkscape:connector-curvature="0" />
  </g>
</svg>
